<svg width="13" height="2" viewBox="0 0 13 2" fill="none" xmlns="http://www.w3.org/2000/svg">
<path fill-rule="evenodd" clip-rule="evenodd" d="M0.5 1C0.5 0.447715 0.947715 0 1.5 0C2.05228 0 2.5 0.447715 2.5 1C2.5 1.55228 2.05228 2 1.5 2C0.947715 2 0.5 1.55228 0.5 1ZM5.5 1C5.5 0.447715 5.94772 0 6.5 0C7.05228 0 7.5 0.447715 7.5 1C7.5 1.55228 7.05228 2 6.5 2C5.94772 2 5.5 1.55228 5.5 1ZM10.5 1C10.5 0.447715 10.9477 0 11.5 0C12.0523 0 12.5 0.447715 12.5 1C12.5 1.55228 12.0523 2 11.5 2C10.9477 2 10.5 1.55228 10.5 1Z" fill="#1D1929"/>
</svg>
