<svg width="22" height="22" viewBox="0 0 22 22" fill="none" xmlns="http://www.w3.org/2000/svg">
<path d="M16.3333 19L16.5685 18.2879L16.2415 18.1799L15.9465 18.3575L16.3333 19ZM19 16.3334L18.3682 15.9292L18.175 16.2312L18.2887 16.5712L19 16.3334ZM20.3333 20.3211L20.0981 21.0333C20.3676 21.1223 20.6643 21.0516 20.8646 20.8505C21.065 20.6494 21.1346 20.3525 21.0446 20.0833L20.3333 20.3211ZM15.9465 18.3575C14.6878 19.1153 12.6647 19.5711 11 19.5711V21.0711C12.858 21.0711 15.1682 20.577 16.7202 19.6426L15.9465 18.3575ZM11 19.5711C6.25907 19.5711 2.41666 15.7306 2.41666 10.994H0.916656C0.916656 16.56 5.43158 21.0711 11 21.0711V19.5711ZM2.41666 10.994C2.41666 6.25736 6.25908 2.41669 11 2.41669V0.916687C5.43156 0.916687 0.916656 5.42802 0.916656 10.994H2.41666ZM11 2.41669C15.7409 2.41669 19.5833 6.25736 19.5833 10.994H21.0833C21.0833 5.42802 16.5684 0.916687 11 0.916687V2.41669ZM19.5833 10.994C19.5833 12.7592 19.1906 14.6438 18.3682 15.9292L19.6318 16.7376C20.6627 15.1261 21.0833 12.9251 21.0833 10.994H19.5833ZM16.0981 19.7122L20.0981 21.0333L20.5685 19.609L16.5685 18.2879L16.0981 19.7122ZM21.0446 20.0833L19.7113 16.0955L18.2887 16.5712L19.622 20.559L21.0446 20.0833Z" fill="#77757F"/>
</svg>
