<svg width="22" height="18" viewBox="0 0 22 18" fill="none" xmlns="http://www.w3.org/2000/svg">
<path d="M11 17L10.4697 17.5303C10.7626 17.8232 11.2374 17.8232 11.5303 17.5303L11 17ZM3.04737 9.04738L2.51704 9.57771L2.51704 9.57771L3.04737 9.04738ZM9.71404 2.38071L9.18371 2.91104L9.18371 2.91104L9.71404 2.38071ZM11 3.66667L10.4697 4.197C10.7626 4.48989 11.2374 4.48989 11.5303 4.197L11 3.66667ZM12.2859 2.38071L11.7556 1.85038L11.7556 1.85038L12.2859 2.38071ZM11.5303 16.4697L3.5777 8.51705L2.51704 9.57771L10.4697 17.5303L11.5303 16.4697ZM18.4223 8.51705L10.4697 16.4697L11.5303 17.5303L19.4829 9.57771L18.4223 8.51705ZM9.18371 2.91104L10.4697 4.197L11.5303 3.13634L10.2444 1.85038L9.18371 2.91104ZM11.5303 4.197L12.8163 2.91104L11.7556 1.85038L10.4697 3.13634L11.5303 4.197ZM15.6193 0.25C14.1701 0.25 12.7803 0.825674 11.7556 1.85038L12.8163 2.91104C13.5597 2.16764 14.5679 1.75 15.6193 1.75V0.25ZM19.5833 5.71405C19.5833 6.76538 19.1657 7.77365 18.4223 8.51705L19.4829 9.57771C20.5076 8.553 21.0833 7.1632 21.0833 5.71405H19.5833ZM21.0833 5.71405C21.0833 2.69634 18.637 0.25 15.6193 0.25V1.75C17.8086 1.75 19.5833 3.52476 19.5833 5.71405H21.0833ZM6.3807 1.75C7.43203 1.75 8.4403 2.16764 9.18371 2.91104L10.2444 1.85038C9.21966 0.825675 7.82986 0.25 6.3807 0.25V1.75ZM2.41666 5.71405C2.41666 3.52476 4.19142 1.75 6.3807 1.75V0.25C3.36299 0.25 0.916656 2.69634 0.916656 5.71405H2.41666ZM3.5777 8.51705C2.83429 7.77364 2.41666 6.76538 2.41666 5.71405H0.916656C0.916656 7.1632 1.49233 8.553 2.51704 9.57771L3.5777 8.51705Z" fill="#77757F"/>
</svg>
